
<svg width="272" height="61" fill="none" xmlns="http://www.w3.org/2000/svg">
  <g>
    <path
      d="M3.547 9.904c-.763-.46-2.075-.638-3.547-.709V8.61c2.11.071 3.511.071 5.285.071 2.624 0 4.682-.035 6.33 0 12.202.248 17.522 6.538 17.522 14.936 0 8.15-5.356 14.599-17.911 14.599-1.401 0-4.345-.089-6.048-.089-1.525 0-3.21.035-5.196.089v-.585c1.472-.089 2.785-.248 3.547-.709V9.904h.018zm3.582 27.142c1.1.213 2.323.301 3.547.301 10.48 0 14.612-6.236 14.612-13.677 0-7.3-4.06-14.138-14.488-14.138-1.472 0-2.696.124-3.67.372v27.142zM41.568 38.233c-2.075-.035-3.298-.088-4.948-.088-1.649 0-2.5.035-4.469.088v-.584c1.189-.089 2.11-.248 2.909-.709V20.534c-.976.762-1.81 1.347-2.536 1.772l-.514-.425c2.074-1.134 4.557-3.172 5.994-4.607l.425.213v3.774c.851-1.95 2.288-3.331 4.434-3.331 2.199 0 3.334 1.4 3.334 2.905 0 1.258-.852 2.41-2.235 2.41-1.135 0-2.234-.762-2.234-2.108 0-.71.301-1.436.922-2.073-.461-.124-1.011 0-1.56.248-1.26.584-2.66 2.32-2.66 4.393v13.2c.762.46 1.95.637 3.12.708v.62h.018zM50.648 38.393c-1.313 0-2.324-1.01-2.324-2.321 0-1.311 1.011-2.356 2.324-2.356a2.356 2.356 0 012.358 2.356c0 1.311-1.064 2.32-2.358 2.32zM93.51 38.694l-7.643-23.883-7.52 23.883h-.708l-8.034-25.07c-1.135-3.543-1.65-4.128-3.848-4.429V8.61c1.773.036 3.174.089 4.646.089 1.56 0 3.76 0 5.781-.089v.585c-1.436.089-2.784.372-3.848.974l7.005 22.147 5.905-19.24c-1.064-3.172-1.684-3.633-4.557-3.881V8.61c1.773.036 3.795.089 5.284.089 1.472 0 4.008-.035 5.782-.089v.585c-1.472.124-2.536.372-3.547.974l6.97 22.147c4.575-14.812 5.674-19.206 6.277-21.775-.674-.708-1.95-1.222-4.22-1.346V8.61c1.773.036 3.245.089 4.734.089 1.472 0 2.199-.035 3.973-.089v.585c-2.324.55-2.838 1.098-4.611 6.75l-7.13 22.749h-.69zM129.066 38.233c-1.773-.035-2.784-.088-4.274-.088-1.472 0-3.121.035-4.894.088v-.584c1.436-.089 2.323-.301 2.997-.709V25.85c0-4.519-2.412-6.202-5.409-6.202-2.075 0-3.547.85-4.735 2.321V36.94c.763.46 1.685.638 2.908.709v.584c-2.074-.035-3.085-.088-4.735-.088-1.649 0-2.5.035-4.468.088v-.584c1.188-.089 2.11-.248 2.908-.709V9.195c-.798.638-1.614 1.134-2.536 1.772l-.514-.46c2.075-1.135 4.557-3.172 5.994-4.554l.425.212v14.812c2.146-2.144 4.398-3.03 6.757-3.03 3.919 0 6.756 2.498 6.756 7.211v11.764c.763.426 1.526.638 2.785.71v.602h.035zM140.256 38.233c-2.075-.035-3.121-.088-4.77-.088-1.649 0-2.447.035-4.434.088v-.584c1.189-.089 2.111-.248 2.909-.709V20.534c-.887.709-1.774 1.347-2.536 1.772l-.514-.425c2.074-1.134 4.557-3.172 5.994-4.607l.425.213V36.94c.763.46 1.685.638 2.908.709v.584h.018zm-6.668-27.054c0-1.133.976-2.108 2.111-2.108 1.135 0 2.11.975 2.11 2.108 0 1.134-.975 2.109-2.11 2.109-1.135 0-2.111-.975-2.111-2.109zM165.048 38.233c-1.773-.035-2.784-.088-4.274-.088-1.472 0-3.121.035-4.894.088v-.584c1.436-.089 2.323-.301 2.997-.709V25.85c0-4.519-2.412-6.202-5.409-6.202-2.075 0-3.547.85-4.735 2.321V36.94c.762.46 1.773.638 2.961.709v.584c-2.074-.035-3.121-.088-4.77-.088-1.649 0-2.483.035-4.469.088v-.584c1.188-.089 2.11-.248 2.908-.709V20.534c-1.064.85-1.808 1.347-2.535 1.772l-.515-.425c2.075-1.134 4.558-3.172 5.994-4.607l.426.213v3.508c2.146-2.144 4.398-3.03 6.756-3.03 3.92 0 6.757 2.498 6.757 7.211V36.94c.763.425 1.525.638 2.784.709v.584h.018zM179.785 23.28c-1.437-3.118-3.848-4.394-6.047-4.394-1.951 0-3.512 1.01-3.512 2.995 0 5.155 10.605 3.72 10.605 10.807 0 3.844-3.174 5.864-6.756 5.864-2.235 0-4.611-.761-6.207-1.86.035-.514.035-1.4.035-1.949 0-.762-.035-1.648-.089-2.533h.515c1.259 3.667 4.061 5.439 6.508 5.439 2.075 0 3.511-1.223 3.511-3.331 0-5.652-10.48-4.27-10.48-10.754 0-3.455 2.908-5.652 6.721-5.652 1.738 0 3.759.46 5.657 1.435v3.915h-.461v.018zM206.226 34.265c-2.075 1.134-4.682 3.295-6.118 4.677l-.515-.212v-2.835c-2.145 1.771-4.344 2.657-6.721 2.657-5.231 0-8.654-4.305-8.654-9.407 0-5.865 4.522-11.215 10.889-11.215 1.773 0 3.245.425 4.469 1.098V9.16c-.852.708-1.561 1.187-2.536 1.771l-.515-.425c2.075-1.134 4.558-3.171 5.994-4.606l.426.212v29.57a23.102 23.102 0 012.696-1.896l.585.479zm-6.633-12.066c-1.808-2.285-4.096-2.905-5.958-2.905-4.132 0-6.118 3.171-6.118 7.423 0 5.652 3.458 9.957 7.856 9.957 1.684 0 3.085-.584 4.22-1.736V22.199zM208.425 28.684c0-6.042 4.735-10.754 10.48-10.754 5.285 0 9.967 3.915 9.967 9.868 0 6.113-4.895 10.754-10.729 10.754-5.622.018-9.718-4.252-9.718-9.868zm16.989 1.4c0-4.979-2.749-10.967-7.768-10.967-3.848 0-5.745 3.455-5.745 7.512 0 5.155 3.05 10.719 7.98 10.719 3.919-.018 5.533-3.473 5.533-7.264zM241.126 38.233c-2.075-.035-3.299-.088-4.948-.088-1.649 0-2.483.035-4.469.088v-.584c1.188-.089 2.11-.248 2.909-.709V20.534c-.976.762-1.809 1.347-2.536 1.772l-.515-.425c2.075-1.134 4.558-3.172 5.994-4.607l.426.213v3.774c.851-1.95 2.288-3.331 4.433-3.331 2.199 0 3.334 1.4 3.334 2.905 0 1.258-.851 2.41-2.234 2.41-1.135 0-2.235-.762-2.235-2.108 0-.71.302-1.436.923-2.073-.462-.124-1.011 0-1.561.248-1.259.584-2.66 2.32-2.66 4.393v13.2c.762.46 1.951.637 3.121.708v.62h.018zM257.92 38.233c-2.075-.035-3.671-.088-5.32-.088-1.65 0-2.873.035-4.859.088v-.584c1.188-.089 2.11-.248 2.908-.709V19.489h-3.033V18.39h3.033v-3.207c0-5.74 4.433-9.283 8.157-9.283.586 0 .976.088 1.313.248-.55 1.523-1.011 3.33-1.401 5.652h-.461c-.302-2.286-1.064-4.058-2.324-4.058-1.808 0-1.897 3.455-1.897 6.75v3.88h3.795v1.099h-3.795v17.434c.975.513 2.696.637 3.884.708v.62z"
      fill="#444" />
    <path
      d="M97.642 59.405a36.69 36.69 0 01-.39 1.453h-4.416v-.248c.851-.071.905-.142.905-.886v-3.596c0-.816-.107-.85-.78-.922v-.248h2.784c.85 0 1.205-.018 1.312-.018.017.23.053.904.088 1.4l-.266.053c-.088-.301-.177-.496-.266-.69-.141-.302-.354-.373-.904-.373h-.869c-.284 0-.301.036-.301.284v2.002h1.01c.674 0 .727-.142.834-.762h.284v1.878h-.284c-.124-.656-.195-.744-.851-.744H94.52v1.807c0 .638.195.69.656.709h.851c.55 0 .639-.089.851-.32.178-.194.373-.566.497-.832l.266.053zM110.02 55.206c-.585.071-.78.16-.798.567a23.8 23.8 0 00-.035 1.524v3.65h-.355l-3.901-4.748v2.267c0 .815.035 1.223.053 1.489.018.46.248.602.904.655v.248h-2.216v-.248c.567-.053.78-.177.815-.62.036-.284.054-.709.054-1.524v-2.32c0-.249-.018-.408-.178-.603-.177-.23-.372-.283-.816-.319v-.248h1.366l3.866 4.571v-2.232c0-.85-.018-1.24-.053-1.506-.036-.408-.231-.532-.958-.585v-.248h2.252v.23zM122.132 58.378c-.567.07-.603.124-.603.655v.762c0 .319.018.62.054.868-.568.124-1.295.32-2.075.32-2.075 0-3.316-1.276-3.316-3.12 0-1.913 1.56-3.064 3.387-3.064.922 0 1.613.177 1.897.23.018.337.071.886.142 1.47l-.266.054c-.213-.78-.479-1.099-1.064-1.293a3.179 3.179 0 00-.851-.124c-1.401 0-2.288.956-2.288 2.622 0 1.452.745 2.887 2.518 2.887.302 0 .586-.07.781-.159.195-.106.301-.213.301-.585v-.726c0-.656-.071-.744-.94-.797v-.266h2.341v.266h-.018zM132.879 59.352a15.713 15.713 0 01-.426 1.506h-4.238v-.248c.833-.089.904-.124.904-.904v-3.614c0-.78-.088-.815-.815-.886v-.248h2.447v.248c-.727.071-.834.107-.834.886v3.703c0 .55.071.673.586.691 0 0 .656.018.727.018.461 0 .603-.053.815-.284.231-.23.426-.602.55-.939l.284.071zM142.579 60.858v-.248c.586-.07.657-.16.532-.514-.124-.354-.301-.815-.496-1.382h-1.969c-.141.408-.283.762-.407 1.134-.196.585-.071.656.673.762v.248h-2.11v-.248c.568-.07.727-.142 1.046-.957l1.88-4.766.284-.053c.567 1.56 1.206 3.278 1.773 4.855.284.797.373.868 1.011.939v.248h-2.217v-.018zm-.922-4.854c-.284.78-.603 1.612-.869 2.32h1.703l-.834-2.32zM156.944 55.206c-.586.071-.781.16-.798.567-.018.284-.036.674-.036 1.524v3.65h-.355l-3.901-4.748v2.267c0 .815.036 1.223.053 1.489.018.46.249.602.905.655v.248h-2.217v-.248c.567-.053.78-.177.816-.62.035-.284.053-.709.053-1.524v-2.32c0-.249-.018-.408-.177-.603-.178-.23-.373-.283-.816-.319v-.248h1.365l3.866 4.571v-2.232c0-.85-.017-1.24-.053-1.506-.035-.408-.23-.532-.958-.585v-.248h2.253v.23zM165.669 54.94c1.276 0 2.092.248 2.66.798.443.443.78 1.08.78 1.949 0 1.063-.443 1.93-1.135 2.462-.692.514-1.578.727-2.696.727h-2.128v-.248c.781-.071.816-.142.816-.886V56.11c0-.78-.106-.815-.816-.886v-.248h2.519v-.036zm-.923 4.713c0 .691.284.868.976.868 1.631 0 2.483-1.116 2.483-2.71 0-.993-.337-1.754-1.064-2.18-.426-.265-.94-.372-1.561-.372-.408 0-.621.053-.727.124-.089.053-.124.16-.124.514v3.756h.017zM83.597 58.183H.195v.709h83.402v-.71zM259.835 58.183h-83.402v.709h83.402v-.71z"
      fill="#000" />
    <path
      d="M268.594 6.927a3.48 3.48 0 01-3.475-3.472c0-1.914 1.56-3.455 3.475-3.455a3.48 3.48 0 013.476 3.473c0 1.913-1.56 3.454-3.476 3.454zm0-5.988a2.527 2.527 0 00-2.518 2.516 2.527 2.527 0 002.518 2.516 2.527 2.527 0 002.519-2.516 2.516 2.516 0 00-2.519-2.516z"
      fill="#444545" />
    <path
      d="M267.318 5.085V1.86h1.365c.337 0 .603.036.745.089.142.053.284.16.372.301a.965.965 0 01.142.514.862.862 0 01-.213.602c-.142.16-.354.266-.638.301.142.09.266.178.355.266.088.089.212.266.372.532l.39.638h-.78l-.479-.71c-.16-.247-.284-.407-.337-.477a.5.5 0 00-.195-.142c-.071-.036-.177-.036-.337-.036h-.124v1.347h-.638zm.638-1.86h.479c.319 0 .514-.018.585-.036a.28.28 0 00.177-.142.506.506 0 00.071-.248.436.436 0 00-.088-.265c-.054-.071-.142-.107-.249-.124-.053 0-.212-.018-.478-.018h-.515v.833h.018z"
      fill="#444" />
  </g>
</svg>
